<svg width="449" height="96" viewBox="0 0 449 96" xmlns="http://www.w3.org/2000/svg">
<path d="M94.022 71.1094C94.4276 70.8776 94.7897 70.7617 95.1084 70.7617H96.1079C96.3107 70.7617 96.6584 70.7472 97.1509 70.7183C99.3817 70.5155 100.7 70.3127 101.105 70.1099C102.119 69.5594 102.989 68.6034 103.713 67.2417C105.219 64.2866 106.914 60.1003 108.797 54.6826C109.695 52.1042 110.26 50.5397 110.492 49.9893C111.216 48.251 111.912 46.4258 112.578 44.5137L116.663 33.0845C117.3 31.2882 118.836 27.1743 121.27 20.7427C121.878 19.1203 122.617 16.9474 123.486 14.2241L124.746 14.1372L126.267 14.1807C127.513 16.6432 128.614 19.2941 129.57 22.1333C130.091 23.6398 130.946 25.8851 132.134 28.8691L138.739 46.73L142.259 56.4209C144.113 61.9255 145.33 65.3151 145.91 66.5898C146.489 67.8356 147.025 68.6613 147.518 69.0669C147.662 69.1828 148.198 69.3566 149.125 69.5884C150.082 69.8201 150.748 69.994 151.125 70.1099C152.457 70.4865 153.384 70.8052 153.906 71.0659C154.022 71.3846 154.08 71.6309 154.08 71.8047C154.08 71.9495 154.036 72.1668 153.949 72.4565C153.022 72.4855 152.37 72.5 151.994 72.5C150.516 72.5 147.909 72.4565 144.171 72.3696L139.826 72.2393L134.567 72.3262C134.22 72.3262 133.858 72.3117 133.481 72.2827C133.133 72.2248 132.829 72.1958 132.568 72.1958H131.612C131.294 72.1668 131.004 72.0799 130.743 71.9351C130.743 71.5295 130.816 71.1383 130.96 70.7617C131.308 70.5879 131.627 70.4865 131.917 70.4575L136.479 70.1533C137.667 70.0954 138.565 69.936 139.174 69.6753C139.348 69.1538 139.435 68.7627 139.435 68.502C139.435 67.9805 139.058 66.6333 138.305 64.4604C137.783 63.0119 137.32 61.6357 136.914 60.332C136.537 59.0283 135.002 54.7406 132.308 47.4688C131.12 47.266 130.077 47.1646 129.179 47.1646L119.879 47.2515L117.141 47.208C116.156 47.208 115.07 47.2804 113.882 47.4253C113.505 48.2944 113.259 48.9173 113.143 49.2939L109.319 61.2446C107.696 65.7931 106.885 68.2992 106.885 68.7627C106.885 69.0234 107.016 69.458 107.276 70.0664C107.885 70.2402 108.696 70.3996 109.71 70.5444L115.62 71.0659C115.939 71.3267 116.098 71.5584 116.098 71.7612C116.098 71.9061 116.055 72.1234 115.968 72.4131C114.664 72.4421 113.665 72.4565 112.969 72.4565C110.652 72.4565 107.957 72.3841 104.886 72.2393C103.467 72.1813 102.453 72.1523 101.844 72.1523C101.236 72.1523 100.178 72.1813 98.6719 72.2393C97.6868 72.2972 96.9771 72.3262 96.5425 72.3262C95.8472 72.3262 94.9491 72.2827 93.8481 72.1958V71.9351C93.8481 71.7323 93.9061 71.457 94.022 71.1094ZM114.751 45.0352C117.851 45.209 121.385 45.2959 125.354 45.2959C127.614 45.2959 129.599 45.2235 131.308 45.0786C131.018 43.9487 130.685 42.8913 130.309 41.9062C128.425 36.8652 127.382 34.084 127.18 33.5625L123.225 23.5239L122.791 22.7417C122.617 23.0894 121.979 24.5814 120.878 27.2178C119.024 31.7373 117.692 35.2573 116.88 37.7778C116.504 38.9077 116.113 40.0376 115.707 41.1675C115.301 42.2684 115.041 43.0506 114.925 43.5142C114.838 43.9487 114.693 44.3978 114.49 44.8613L114.751 45.0352Z"/>
<path d="M156.6 72.6304L156.426 72.0654C156.426 71.8626 156.557 71.5584 156.817 71.1528L159.381 70.6313L162.988 69.9795C163.278 69.8346 163.481 69.6318 163.597 69.3711C163.771 68.9945 163.857 67.8791 163.857 66.0249C163.857 56.1746 163.799 50.4963 163.684 48.9897C163.568 47.4543 163.307 46.4837 162.901 46.0781C162.496 45.6725 161.453 45.3538 159.772 45.1221C158.787 44.9772 158.005 44.7889 157.426 44.5571L157.6 43.2534C160.642 42.0076 162.684 40.9357 163.727 40.0376C165.176 38.7339 166.407 37.0246 167.421 34.9097L168.898 34.9531C169.072 36.4017 169.159 39.6175 169.159 44.6006L169.116 45.3394C169.116 45.5132 169.145 45.7884 169.203 46.165C170.304 44.166 171.68 42.3263 173.331 40.646L174.331 39.6465C174.736 39.1829 175.127 38.8208 175.504 38.5601C177.532 37.3433 179.038 36.7349 180.023 36.7349C181.298 36.7349 182.341 37.1694 183.152 38.0386C183.964 38.8787 184.369 39.9217 184.369 41.1675C184.369 42.1525 184.079 42.9202 183.5 43.4707C182.718 44.195 181.82 44.5571 180.806 44.5571C180.342 44.5571 179.43 44.3109 178.068 43.8184C176.706 43.3258 175.808 43.0796 175.374 43.0796C174.562 43.0796 173.997 43.21 173.679 43.4707C172.868 44.1081 171.882 45.4118 170.724 47.3818C169.826 48.8594 169.376 50.221 169.376 51.4668L169.594 58.6372L169.681 67.2417C169.768 68.2267 169.883 68.8641 170.028 69.1538C170.144 69.3566 170.434 69.6029 170.897 69.8926C174.026 70.1533 175.881 70.3416 176.46 70.4575C176.866 70.4865 177.17 70.5155 177.373 70.5444C178.618 70.5734 179.487 70.7472 179.98 71.0659C180.241 71.2108 180.371 71.4281 180.371 71.7178C180.371 71.8916 180.255 72.1234 180.023 72.4131L175.2 72.3696L173.375 72.3262L170.724 72.3696H166.291L163.901 72.5L156.6 72.6304Z"/>
<path d="M198.797 29.5645L200.144 29.6079L200.318 33.7363L200.231 39.0815C200.781 39.1105 201.129 39.125 201.274 39.125C202.027 39.125 203.461 39.0671 205.576 38.9512C206.938 38.8643 208.242 38.8208 209.487 38.8208C210.067 38.8208 210.936 38.8353 212.095 38.8643C212.153 39.4437 212.182 39.9072 212.182 40.2549C212.182 40.6315 212.095 41.2254 211.921 42.0366H211.182L204.446 42.2539L201.1 42.3408L200.318 42.4277C200.086 43.152 199.97 43.9922 199.97 44.9482L200.101 51.4668L200.014 62.9395C200.014 65.9525 200.405 67.9515 201.187 68.9365C201.94 69.9505 203.07 70.4575 204.577 70.4575C205.33 70.4575 206.75 70.2257 208.835 69.7622C209.473 69.6174 210.327 69.1393 211.399 68.3281H211.791C212.051 68.3281 212.254 68.415 212.399 68.5889C212.573 68.7337 212.66 68.9365 212.66 69.1973L212.616 69.5015C211.37 70.8631 209.936 71.8626 208.314 72.5C206.721 73.1084 204.591 73.4126 201.926 73.4126C200.043 73.4126 198.478 72.978 197.232 72.1089C196.016 71.2397 195.233 70.2113 194.886 69.0234C194.538 67.8356 194.364 65.2427 194.364 61.2446L194.538 51.4668L194.495 46.7734V45.0352C194.495 44.224 194.466 43.4128 194.408 42.6016L193.669 42.5581L190.105 42.6885L189.758 42.7319C189.439 42.7319 189.193 42.6595 189.019 42.5146C188.874 42.3698 188.802 42.196 188.802 41.9932C188.802 41.6455 188.903 41.3703 189.106 41.1675C189.338 40.9357 190.004 40.5881 191.105 40.1245C191.858 39.8058 192.727 39.2119 193.712 38.3428C194.726 37.4447 195.581 36.4596 196.276 35.3877C196.624 34.8083 197.117 33.7074 197.754 32.085C198.217 30.8971 198.565 30.057 198.797 29.5645Z"/>
<path d="M246.904 18.874C247.136 20.7861 247.251 21.887 247.251 22.1768L247.078 26.0444C247.02 27.6958 246.947 28.7533 246.86 29.2168C246.6 29.3327 246.382 29.3906 246.208 29.3906L245.817 29.3037C244.89 25.2477 243.311 22.2926 241.081 20.4385C238.879 18.5843 236.184 17.6572 232.998 17.6572C229.695 17.6572 226.986 18.5843 224.871 20.4385C222.756 22.2926 221.699 24.451 221.699 26.9136C221.699 28.7967 222.438 30.5205 223.915 32.085C225.393 33.6494 229.173 35.9961 235.257 39.125C239.893 41.5296 243.21 43.4997 245.209 45.0352C247.208 46.5417 248.715 48.2944 249.729 50.2935C250.743 52.2925 251.25 54.5233 251.25 56.9858C251.25 60.0858 250.438 62.9974 248.816 65.7207C247.222 68.444 245.064 70.501 242.341 71.8916C239.618 73.2533 236.011 73.9341 231.52 73.9341C227.609 73.9341 223.857 73.3112 220.265 72.0654C218.15 71.3122 216.861 70.7038 216.397 70.2402C215.933 69.7767 215.702 69.2842 215.702 68.7627C215.702 68.444 215.731 68.0384 215.789 67.5459C216.194 64.1273 216.411 61.3171 216.44 59.1152C216.498 57.7536 216.6 56.9569 216.745 56.7251C216.861 56.5223 217.078 56.4209 217.396 56.4209C217.657 56.4209 217.86 56.5223 218.005 56.7251C218.179 56.8989 218.295 57.2466 218.353 57.7681C218.671 61.3315 220.323 64.5184 223.307 67.3286C226.262 70.1388 229.608 71.5439 233.345 71.5439C235.634 71.5439 237.734 71.0659 239.646 70.1099C241.588 69.1538 243.094 67.7777 244.166 65.9814C245.267 64.1562 245.817 62.389 245.817 60.6797C245.817 58.333 244.992 56.1891 243.34 54.248C241.689 52.307 238.372 50.0472 233.389 47.4688C228.406 44.8613 225.161 42.9637 223.654 41.7759C221.221 39.8348 219.396 37.7778 218.179 35.605C217.281 33.9246 216.832 31.9691 216.832 29.7383C216.832 25.7113 218.425 22.3071 221.612 19.5259C224.799 16.7157 229.072 15.3105 234.432 15.3105C237.387 15.3105 239.936 15.6437 242.08 16.3101C243.645 16.8315 245.252 17.6862 246.904 18.874Z"/>
<path d="M256.117 95.1846C256.088 94.8659 256.073 94.5762 256.073 94.3154C256.073 94.1126 256.102 93.8664 256.16 93.5767L260.506 92.7075C261.201 92.3599 261.766 91.9398 262.201 91.4473C262.346 90.9258 262.418 90.4043 262.418 89.8828C262.418 85.4212 262.302 76.9181 262.07 64.3735L261.94 48.4683C261.882 45.9478 261.723 44.3543 261.462 43.688C261.317 43.3403 261.1 43.0651 260.81 42.8623C260.086 42.3118 258.637 41.8483 256.464 41.4717L256.725 40.168C259.854 38.8353 261.94 37.8068 262.983 37.0825C264.055 36.3293 265.069 35.2863 266.025 33.9536L266.546 33.8232C266.749 33.8232 267.039 33.9102 267.416 34.084C267.387 35.9092 267.372 37.1115 267.372 37.6909L267.416 42.4712C269.559 40.8488 271.79 39.6465 274.108 38.8643C276.426 38.0531 278.83 37.6475 281.322 37.6475C285.783 37.6475 289.55 39.2264 292.621 42.3843C295.692 45.5132 297.227 49.5547 297.227 54.5088C297.227 58.1882 296.358 61.4909 294.62 64.417C292.91 67.3431 290.535 69.5304 287.493 70.979C284.48 72.4276 281.438 73.1519 278.367 73.1519C275.759 73.1519 272.775 72.4421 269.415 71.0225C268.864 70.7907 268.372 70.5879 267.937 70.4141C267.879 72.7318 267.85 74.7887 267.85 76.585C267.85 85.5371 268.096 90.5492 268.589 91.6211C268.85 92.2005 269.661 92.5482 271.022 92.6641C273.34 92.8379 274.876 93.1711 275.629 93.6636C276.063 93.9243 276.353 94.4458 276.498 95.228L272.196 95.3149L268.285 95.228L261.766 95.2715L256.117 95.1846ZM267.459 45.4697C267.401 45.8753 267.372 46.252 267.372 46.5996C267.372 56.9424 267.473 62.7367 267.676 63.9824C268.082 66.2712 268.893 67.8791 270.11 68.8062C271.993 70.2837 274.687 71.0225 278.193 71.0225C281.814 71.0225 284.871 69.7767 287.362 67.2852C289.854 64.7646 291.1 61.5054 291.1 57.5073C291.1 52.6981 289.781 48.8883 287.145 46.0781C284.509 43.2679 281.032 41.8628 276.715 41.8628C274.89 41.8628 273.21 42.167 271.674 42.7754C270.139 43.3548 268.734 44.2529 267.459 45.4697Z"/>
<path d="M302.138 71.457C305.527 70.8486 307.483 70.3851 308.004 70.0664C308.323 69.8636 308.482 69.4001 308.482 68.6758L308.439 65.8076L308.482 60.7231L308.396 47.7729L308.439 42.9492V39.5161L308.569 35.3008C308.569 28.6953 308.497 24.7552 308.352 23.4805C308.236 22.1768 307.99 21.3656 307.613 21.0469C306.918 20.3805 305.006 19.6852 301.877 18.9609V18.7437C301.877 18.5409 301.906 18.2511 301.964 17.8745C302.369 17.8166 302.761 17.7441 303.137 17.6572C303.514 17.5703 303.876 17.5124 304.224 17.4834C307.671 16.4984 310.177 15.5423 311.742 14.6152H313.871C313.929 15.4264 313.958 17.9904 313.958 22.3071L313.915 27.8262L313.958 34.9531L313.784 43.7314C313.784 44.2529 313.813 44.8324 313.871 45.4697C315.696 43.3548 317.029 41.9497 317.869 41.2544C319.376 40.0376 320.984 39.0815 322.693 38.3862C324.402 37.6619 326.198 37.2998 328.082 37.2998C331.645 37.2998 334.557 38.8063 336.816 41.8193C338.12 43.5866 338.772 46.0926 338.772 49.3374L338.642 53.77L338.685 56.2471L338.511 60.5493C338.395 64.1128 338.337 66.2277 338.337 66.894C338.337 67.6473 338.366 68.6613 338.424 69.936L340.901 70.501C342.553 70.8486 343.827 71.1673 344.726 71.457L344.682 72.8042L335.426 72.5435C334.904 72.5435 333.485 72.6014 331.167 72.7173C329.747 72.7752 328.922 72.8042 328.69 72.8042H327.734C327.589 72.5435 327.517 72.3262 327.517 72.1523V71.7612C327.922 71.2397 328.675 70.8921 329.776 70.7183L332.384 70.1099C332.731 69.8201 332.934 69.516 332.992 69.1973C333.108 68.444 333.238 64.7067 333.383 57.9854L333.47 54.7695C333.586 51.3799 333.325 48.5697 332.688 46.3389C332.282 44.8034 331.355 43.5866 329.907 42.6885C328.487 41.7614 326.836 41.2979 324.953 41.2979C323.388 41.2979 321.911 41.631 320.52 42.2974C319.564 42.7899 318.42 43.6445 317.087 44.8613C315.754 46.0781 314.827 47.1211 314.306 47.9902C313.958 48.5697 313.784 49.5257 313.784 50.8584L313.828 53.9004L313.741 57.0728C313.741 57.3335 313.784 59.1442 313.871 62.5049L313.828 65.2861L313.915 68.3281C313.944 68.7627 313.987 69.0814 314.045 69.2842L320.172 70.7617C320.491 70.8486 320.969 71.0225 321.606 71.2832L321.737 71.7612C321.737 71.9061 321.664 72.1379 321.52 72.4565C320.679 72.4855 320.042 72.5 319.607 72.5L316.218 72.4565L308.743 72.5435L303.137 72.7173C302.847 72.6883 302.413 72.6593 301.833 72.6304L301.79 72.3262C301.79 72.0944 301.906 71.8047 302.138 71.457Z"/>
<path d="M380.36 49.5547L362.934 49.6851H359.631C358.299 49.6851 356.937 49.743 355.546 49.8589C355.286 50.728 355.155 51.3219 355.155 51.6406L355.199 52.0752V52.5098L355.155 54.6392C355.155 56.4064 355.706 58.5793 356.807 61.1577C357.937 63.7072 359.53 65.6628 361.587 67.0244C363.673 68.3571 366.266 69.0669 369.366 69.1538C371.017 69.0669 372.335 68.8641 373.32 68.5454C374.305 68.2267 375.696 67.488 377.492 66.3291L380.621 63.7651L380.882 65.5034C380.882 65.7062 380.867 65.9235 380.838 66.1553C379.535 67.8066 377.883 69.2552 375.884 70.501C373.885 71.7467 371.857 72.6593 369.8 73.2388C368.815 73.4995 367.193 73.6299 364.933 73.6299C362.876 73.6299 360.848 73.2098 358.849 72.3696C355.894 71.0949 353.562 69.0524 351.853 66.2422C350.172 63.403 349.332 59.9699 349.332 55.9429C349.332 54.6681 349.564 53.0312 350.027 51.0322C350.52 49.0332 351.389 46.9038 352.635 44.644C353.475 43.1086 354.503 41.8483 355.72 40.8633C357.458 39.4727 358.979 38.5021 360.283 37.9517C362.166 37.1694 364.354 36.7783 366.845 36.7783C369.54 36.7783 371.741 37.2708 373.451 38.2559C375.768 39.5596 377.492 41.2399 378.622 43.2969C379.781 45.3538 380.36 47.237 380.36 48.9463V49.5547ZM356.111 47.9902H358.154C359.631 47.9902 364.035 47.7585 371.365 47.2949C372.524 47.237 373.233 47.1211 373.494 46.9473C374.016 46.3968 374.276 45.9043 374.276 45.4697C374.276 44.5716 373.987 43.5576 373.407 42.4277C372.828 41.2689 371.93 40.3853 370.713 39.7769C369.525 39.1395 368.134 38.8208 366.541 38.8208C363.18 38.8208 360.486 40.0811 358.458 42.6016C356.894 44.5137 356.111 46.3099 356.111 47.9902Z"/>
<path d="M384.836 72.6304L384.663 72.0654C384.663 71.8626 384.793 71.5584 385.054 71.1528L387.618 70.6313L391.225 69.9795C391.514 69.8346 391.717 69.6318 391.833 69.3711C392.007 68.9945 392.094 67.8791 392.094 66.0249C392.094 56.1746 392.036 50.4963 391.92 48.9897C391.804 47.4543 391.543 46.4837 391.138 46.0781C390.732 45.6725 389.689 45.3538 388.009 45.1221C387.024 44.9772 386.242 44.7889 385.662 44.5571L385.836 43.2534C388.878 42.0076 390.92 40.9357 391.963 40.0376C393.412 38.7339 394.643 37.0246 395.657 34.9097L397.135 34.9531C397.309 36.4017 397.396 39.6175 397.396 44.6006L397.352 45.3394C397.352 45.5132 397.381 45.7884 397.439 46.165C398.54 44.166 399.916 42.3263 401.567 40.646L402.567 39.6465C402.972 39.1829 403.364 38.8208 403.74 38.5601C405.768 37.3433 407.275 36.7349 408.26 36.7349C409.535 36.7349 410.577 37.1694 411.389 38.0386C412.2 38.8787 412.605 39.9217 412.605 41.1675C412.605 42.1525 412.316 42.9202 411.736 43.4707C410.954 44.195 410.056 44.5571 409.042 44.5571C408.578 44.5571 407.666 44.3109 406.304 43.8184C404.943 43.3258 404.044 43.0796 403.61 43.0796C402.799 43.0796 402.234 43.21 401.915 43.4707C401.104 44.1081 400.119 45.4118 398.96 47.3818C398.062 48.8594 397.613 50.221 397.613 51.4668L397.83 58.6372L397.917 67.2417C398.004 68.2267 398.12 68.8641 398.265 69.1538C398.381 69.3566 398.67 69.6029 399.134 69.8926C402.263 70.1533 404.117 70.3416 404.696 70.4575C405.102 70.4865 405.406 70.5155 405.609 70.5444C406.855 70.5734 407.724 70.7472 408.216 71.0659C408.477 71.2108 408.607 71.4281 408.607 71.7178C408.607 71.8916 408.492 72.1234 408.26 72.4131L403.436 72.3696L401.611 72.3262L398.96 72.3696H394.527L392.137 72.5L384.836 72.6304Z"/>
<path d="M447.197 49.5547L429.771 49.6851H426.468C425.136 49.6851 423.774 49.743 422.383 49.8589C422.123 50.728 421.992 51.3219 421.992 51.6406L422.036 52.0752V52.5098L421.992 54.6392C421.992 56.4064 422.543 58.5793 423.644 61.1577C424.773 63.7072 426.367 65.6628 428.424 67.0244C430.51 68.3571 433.103 69.0669 436.203 69.1538C437.854 69.0669 439.172 68.8641 440.157 68.5454C441.142 68.2267 442.533 67.488 444.329 66.3291L447.458 63.7651L447.719 65.5034C447.719 65.7062 447.704 65.9235 447.675 66.1553C446.372 67.8066 444.72 69.2552 442.721 70.501C440.722 71.7467 438.694 72.6593 436.637 73.2388C435.652 73.4995 434.03 73.6299 431.77 73.6299C429.713 73.6299 427.685 73.2098 425.686 72.3696C422.731 71.0949 420.399 69.0524 418.689 66.2422C417.009 63.403 416.169 59.9699 416.169 55.9429C416.169 54.6681 416.401 53.0312 416.864 51.0322C417.357 49.0332 418.226 46.9038 419.472 44.644C420.312 43.1086 421.34 41.8483 422.557 40.8633C424.295 39.4727 425.816 38.5021 427.12 37.9517C429.003 37.1694 431.191 36.7783 433.682 36.7783C436.376 36.7783 438.578 37.2708 440.288 38.2559C442.605 39.5596 444.329 41.2399 445.459 43.2969C446.618 45.3538 447.197 47.237 447.197 48.9463V49.5547ZM422.948 47.9902H424.991C426.468 47.9902 430.872 47.7585 438.202 47.2949C439.361 47.237 440.07 47.1211 440.331 46.9473C440.853 46.3968 441.113 45.9043 441.113 45.4697C441.113 44.5716 440.824 43.5576 440.244 42.4277C439.665 41.2689 438.767 40.3853 437.55 39.7769C436.362 39.1395 434.971 38.8208 433.378 38.8208C430.017 38.8208 427.323 40.0811 425.295 42.6016C423.73 44.5137 422.948 46.3099 422.948 47.9902Z"/>
<path d="M28.3299 0.5L8.68504 43.105C15.4409 39.315 17.9961 40.0556 20.8977 39.4457L33.6567 10.3018L49.637 46.7643H36.878V54.6057L63.4086 55.1285L38.7236 0.5H28.3299Z"/>
<path d="M29.2126 46.7643V54.6057C10.1142 54.6057 11.0236 63.4927 11.0236 66.3678C11.0236 70.1601 16.4803 80.3517 33.6567 80.3517C55.4567 80.3517 57.1456 70.2885 57.1456 61.9244H66.5C66.5 84.9258 49.637 89.5 33.6567 89.5C24.1724 89.5 0.5 85.9714 0.5 66.3678C0.5 46.7643 19.4685 45.6752 29.2126 46.7643Z"/>
<path d="M94.022 71.1094C94.4276 70.8776 94.7897 70.7617 95.1084 70.7617H96.1079C96.3107 70.7617 96.6584 70.7472 97.1509 70.7183C99.3817 70.5155 100.7 70.3127 101.105 70.1099C102.119 69.5594 102.989 68.6034 103.713 67.2417C105.219 64.2866 106.914 60.1003 108.797 54.6826C109.695 52.1042 110.26 50.5397 110.492 49.9893C111.216 48.251 111.912 46.4258 112.578 44.5137L116.663 33.0845C117.3 31.2882 118.836 27.1743 121.27 20.7427C121.878 19.1203 122.617 16.9474 123.486 14.2241L124.746 14.1372L126.267 14.1807C127.513 16.6432 128.614 19.2941 129.57 22.1333C130.091 23.6398 130.946 25.8851 132.134 28.8691L138.739 46.73L142.259 56.4209C144.113 61.9255 145.33 65.3151 145.91 66.5898C146.489 67.8356 147.025 68.6613 147.518 69.0669C147.662 69.1828 148.198 69.3566 149.125 69.5884C150.082 69.8201 150.748 69.994 151.125 70.1099C152.457 70.4865 153.384 70.8052 153.906 71.0659C154.022 71.3846 154.08 71.6309 154.08 71.8047C154.08 71.9495 154.036 72.1668 153.949 72.4565C153.022 72.4855 152.37 72.5 151.994 72.5C150.516 72.5 147.909 72.4565 144.171 72.3696L139.826 72.2393L134.567 72.3262C134.22 72.3262 133.858 72.3117 133.481 72.2827C133.133 72.2248 132.829 72.1958 132.568 72.1958H131.612C131.294 72.1668 131.004 72.0799 130.743 71.9351C130.743 71.5295 130.816 71.1383 130.96 70.7617C131.308 70.5879 131.627 70.4865 131.917 70.4575L136.479 70.1533C137.667 70.0954 138.565 69.936 139.174 69.6753C139.348 69.1538 139.435 68.7627 139.435 68.502C139.435 67.9805 139.058 66.6333 138.305 64.4604C137.783 63.0119 137.32 61.6357 136.914 60.332C136.537 59.0283 135.002 54.7406 132.308 47.4688C131.12 47.266 130.077 47.1646 129.179 47.1646L119.879 47.2515L117.141 47.208C116.156 47.208 115.07 47.2804 113.882 47.4253C113.505 48.2944 113.259 48.9173 113.143 49.2939L109.319 61.2446C107.696 65.7931 106.885 68.2992 106.885 68.7627C106.885 69.0234 107.016 69.458 107.276 70.0664C107.885 70.2402 108.696 70.3996 109.71 70.5444L115.62 71.0659C115.939 71.3267 116.098 71.5584 116.098 71.7612C116.098 71.9061 116.055 72.1234 115.968 72.4131C114.664 72.4421 113.665 72.4565 112.969 72.4565C110.652 72.4565 107.957 72.3841 104.886 72.2393C103.467 72.1813 102.453 72.1523 101.844 72.1523C101.236 72.1523 100.178 72.1813 98.6719 72.2393C97.6868 72.2972 96.9771 72.3262 96.5425 72.3262C95.8472 72.3262 94.9491 72.2827 93.8481 72.1958V71.9351C93.8481 71.7323 93.9061 71.457 94.022 71.1094ZM114.751 45.0352C117.851 45.209 121.385 45.2959 125.354 45.2959C127.614 45.2959 129.599 45.2235 131.308 45.0786C131.018 43.9487 130.685 42.8913 130.309 41.9062C128.425 36.8652 127.382 34.084 127.18 33.5625L123.225 23.5239L122.791 22.7417C122.617 23.0894 121.979 24.5814 120.878 27.2178C119.024 31.7373 117.692 35.2573 116.88 37.7778C116.504 38.9077 116.113 40.0376 115.707 41.1675C115.301 42.2684 115.041 43.0506 114.925 43.5142C114.838 43.9487 114.693 44.3978 114.49 44.8613L114.751 45.0352Z" />
<path d="M156.6 72.6304L156.426 72.0654C156.426 71.8626 156.557 71.5584 156.817 71.1528L159.381 70.6313L162.988 69.9795C163.278 69.8346 163.481 69.6318 163.597 69.3711C163.771 68.9945 163.857 67.8791 163.857 66.0249C163.857 56.1746 163.799 50.4963 163.684 48.9897C163.568 47.4543 163.307 46.4837 162.901 46.0781C162.496 45.6725 161.453 45.3538 159.772 45.1221C158.787 44.9772 158.005 44.7889 157.426 44.5571L157.6 43.2534C160.642 42.0076 162.684 40.9357 163.727 40.0376C165.176 38.7339 166.407 37.0246 167.421 34.9097L168.898 34.9531C169.072 36.4017 169.159 39.6175 169.159 44.6006L169.116 45.3394C169.116 45.5132 169.145 45.7884 169.203 46.165C170.304 44.166 171.68 42.3263 173.331 40.646L174.331 39.6465C174.736 39.1829 175.127 38.8208 175.504 38.5601C177.532 37.3433 179.038 36.7349 180.023 36.7349C181.298 36.7349 182.341 37.1694 183.152 38.0386C183.964 38.8787 184.369 39.9217 184.369 41.1675C184.369 42.1525 184.079 42.9202 183.5 43.4707C182.718 44.195 181.82 44.5571 180.806 44.5571C180.342 44.5571 179.43 44.3109 178.068 43.8184C176.706 43.3258 175.808 43.0796 175.374 43.0796C174.562 43.0796 173.997 43.21 173.679 43.4707C172.868 44.1081 171.882 45.4118 170.724 47.3818C169.826 48.8594 169.376 50.221 169.376 51.4668L169.594 58.6372L169.681 67.2417C169.768 68.2267 169.883 68.8641 170.028 69.1538C170.144 69.3566 170.434 69.6029 170.897 69.8926C174.026 70.1533 175.881 70.3416 176.46 70.4575C176.866 70.4865 177.17 70.5155 177.373 70.5444C178.618 70.5734 179.487 70.7472 179.98 71.0659C180.241 71.2108 180.371 71.4281 180.371 71.7178C180.371 71.8916 180.255 72.1234 180.023 72.4131L175.2 72.3696L173.375 72.3262L170.724 72.3696H166.291L163.901 72.5L156.6 72.6304Z" />
<path d="M198.797 29.5645L200.144 29.6079L200.318 33.7363L200.231 39.0815C200.781 39.1105 201.129 39.125 201.274 39.125C202.027 39.125 203.461 39.0671 205.576 38.9512C206.938 38.8643 208.242 38.8208 209.487 38.8208C210.067 38.8208 210.936 38.8353 212.095 38.8643C212.153 39.4437 212.182 39.9072 212.182 40.2549C212.182 40.6315 212.095 41.2254 211.921 42.0366H211.182L204.446 42.2539L201.1 42.3408L200.318 42.4277C200.086 43.152 199.97 43.9922 199.97 44.9482L200.101 51.4668L200.014 62.9395C200.014 65.9525 200.405 67.9515 201.187 68.9365C201.94 69.9505 203.07 70.4575 204.577 70.4575C205.33 70.4575 206.75 70.2257 208.835 69.7622C209.473 69.6174 210.327 69.1393 211.399 68.3281H211.791C212.051 68.3281 212.254 68.415 212.399 68.5889C212.573 68.7337 212.66 68.9365 212.66 69.1973L212.616 69.5015C211.37 70.8631 209.936 71.8626 208.314 72.5C206.721 73.1084 204.591 73.4126 201.926 73.4126C200.043 73.4126 198.478 72.978 197.232 72.1089C196.016 71.2397 195.233 70.2113 194.886 69.0234C194.538 67.8356 194.364 65.2427 194.364 61.2446L194.538 51.4668L194.495 46.7734V45.0352C194.495 44.224 194.466 43.4128 194.408 42.6016L193.669 42.5581L190.105 42.6885L189.758 42.7319C189.439 42.7319 189.193 42.6595 189.019 42.5146C188.874 42.3698 188.802 42.196 188.802 41.9932C188.802 41.6455 188.903 41.3703 189.106 41.1675C189.338 40.9357 190.004 40.5881 191.105 40.1245C191.858 39.8058 192.727 39.2119 193.712 38.3428C194.726 37.4447 195.581 36.4596 196.276 35.3877C196.624 34.8083 197.117 33.7074 197.754 32.085C198.217 30.8971 198.565 30.057 198.797 29.5645Z" />
<path d="M246.904 18.874C247.136 20.7861 247.251 21.887 247.251 22.1768L247.078 26.0444C247.02 27.6958 246.947 28.7533 246.86 29.2168C246.6 29.3327 246.382 29.3906 246.208 29.3906L245.817 29.3037C244.89 25.2477 243.311 22.2926 241.081 20.4385C238.879 18.5843 236.184 17.6572 232.998 17.6572C229.695 17.6572 226.986 18.5843 224.871 20.4385C222.756 22.2926 221.699 24.451 221.699 26.9136C221.699 28.7967 222.438 30.5205 223.915 32.085C225.393 33.6494 229.173 35.9961 235.257 39.125C239.893 41.5296 243.21 43.4997 245.209 45.0352C247.208 46.5417 248.715 48.2944 249.729 50.2935C250.743 52.2925 251.25 54.5233 251.25 56.9858C251.25 60.0858 250.438 62.9974 248.816 65.7207C247.222 68.444 245.064 70.501 242.341 71.8916C239.618 73.2533 236.011 73.9341 231.52 73.9341C227.609 73.9341 223.857 73.3112 220.265 72.0654C218.15 71.3122 216.861 70.7038 216.397 70.2402C215.933 69.7767 215.702 69.2842 215.702 68.7627C215.702 68.444 215.731 68.0384 215.789 67.5459C216.194 64.1273 216.411 61.3171 216.44 59.1152C216.498 57.7536 216.6 56.9569 216.745 56.7251C216.861 56.5223 217.078 56.4209 217.396 56.4209C217.657 56.4209 217.86 56.5223 218.005 56.7251C218.179 56.8989 218.295 57.2466 218.353 57.7681C218.671 61.3315 220.323 64.5184 223.307 67.3286C226.262 70.1388 229.608 71.5439 233.345 71.5439C235.634 71.5439 237.734 71.0659 239.646 70.1099C241.588 69.1538 243.094 67.7777 244.166 65.9814C245.267 64.1562 245.817 62.389 245.817 60.6797C245.817 58.333 244.992 56.1891 243.34 54.248C241.689 52.307 238.372 50.0472 233.389 47.4688C228.406 44.8613 225.161 42.9637 223.654 41.7759C221.221 39.8348 219.396 37.7778 218.179 35.605C217.281 33.9246 216.832 31.9691 216.832 29.7383C216.832 25.7113 218.425 22.3071 221.612 19.5259C224.799 16.7157 229.072 15.3105 234.432 15.3105C237.387 15.3105 239.936 15.6437 242.08 16.3101C243.645 16.8315 245.252 17.6862 246.904 18.874Z" />
<path d="M256.117 95.1846C256.088 94.8659 256.073 94.5762 256.073 94.3154C256.073 94.1126 256.102 93.8664 256.16 93.5767L260.506 92.7075C261.201 92.3599 261.766 91.9398 262.201 91.4473C262.346 90.9258 262.418 90.4043 262.418 89.8828C262.418 85.4212 262.302 76.9181 262.07 64.3735L261.94 48.4683C261.882 45.9478 261.723 44.3543 261.462 43.688C261.317 43.3403 261.1 43.0651 260.81 42.8623C260.086 42.3118 258.637 41.8483 256.464 41.4717L256.725 40.168C259.854 38.8353 261.94 37.8068 262.983 37.0825C264.055 36.3293 265.069 35.2863 266.025 33.9536L266.546 33.8232C266.749 33.8232 267.039 33.9102 267.416 34.084C267.387 35.9092 267.372 37.1115 267.372 37.6909L267.416 42.4712C269.559 40.8488 271.79 39.6465 274.108 38.8643C276.426 38.0531 278.83 37.6475 281.322 37.6475C285.783 37.6475 289.55 39.2264 292.621 42.3843C295.692 45.5132 297.227 49.5547 297.227 54.5088C297.227 58.1882 296.358 61.4909 294.62 64.417C292.91 67.3431 290.535 69.5304 287.493 70.979C284.48 72.4276 281.438 73.1519 278.367 73.1519C275.759 73.1519 272.775 72.4421 269.415 71.0225C268.864 70.7907 268.372 70.5879 267.937 70.4141C267.879 72.7318 267.85 74.7887 267.85 76.585C267.85 85.5371 268.096 90.5492 268.589 91.6211C268.85 92.2005 269.661 92.5482 271.022 92.6641C273.34 92.8379 274.876 93.1711 275.629 93.6636C276.063 93.9243 276.353 94.4458 276.498 95.228L272.196 95.3149L268.285 95.228L261.766 95.2715L256.117 95.1846ZM267.459 45.4697C267.401 45.8753 267.372 46.252 267.372 46.5996C267.372 56.9424 267.473 62.7367 267.676 63.9824C268.082 66.2712 268.893 67.8791 270.11 68.8062C271.993 70.2837 274.687 71.0225 278.193 71.0225C281.814 71.0225 284.871 69.7767 287.362 67.2852C289.854 64.7646 291.1 61.5054 291.1 57.5073C291.1 52.6981 289.781 48.8883 287.145 46.0781C284.509 43.2679 281.032 41.8628 276.715 41.8628C274.89 41.8628 273.21 42.167 271.674 42.7754C270.139 43.3548 268.734 44.2529 267.459 45.4697Z" />
<path d="M302.138 71.457C305.527 70.8486 307.483 70.3851 308.004 70.0664C308.323 69.8636 308.482 69.4001 308.482 68.6758L308.439 65.8076L308.482 60.7231L308.396 47.7729L308.439 42.9492V39.5161L308.569 35.3008C308.569 28.6953 308.497 24.7552 308.352 23.4805C308.236 22.1768 307.99 21.3656 307.613 21.0469C306.918 20.3805 305.006 19.6852 301.877 18.9609V18.7437C301.877 18.5409 301.906 18.2511 301.964 17.8745C302.369 17.8166 302.761 17.7441 303.137 17.6572C303.514 17.5703 303.876 17.5124 304.224 17.4834C307.671 16.4984 310.177 15.5423 311.742 14.6152H313.871C313.929 15.4264 313.958 17.9904 313.958 22.3071L313.915 27.8262L313.958 34.9531L313.784 43.7314C313.784 44.2529 313.813 44.8324 313.871 45.4697C315.696 43.3548 317.029 41.9497 317.869 41.2544C319.376 40.0376 320.984 39.0815 322.693 38.3862C324.402 37.6619 326.198 37.2998 328.082 37.2998C331.645 37.2998 334.557 38.8063 336.816 41.8193C338.12 43.5866 338.772 46.0926 338.772 49.3374L338.642 53.77L338.685 56.2471L338.511 60.5493C338.395 64.1128 338.337 66.2277 338.337 66.894C338.337 67.6473 338.366 68.6613 338.424 69.936L340.901 70.501C342.553 70.8486 343.827 71.1673 344.726 71.457L344.682 72.8042L335.426 72.5435C334.904 72.5435 333.485 72.6014 331.167 72.7173C329.747 72.7752 328.922 72.8042 328.69 72.8042H327.734C327.589 72.5435 327.517 72.3262 327.517 72.1523V71.7612C327.922 71.2397 328.675 70.8921 329.776 70.7183L332.384 70.1099C332.731 69.8201 332.934 69.516 332.992 69.1973C333.108 68.444 333.238 64.7067 333.383 57.9854L333.47 54.7695C333.586 51.3799 333.325 48.5697 332.688 46.3389C332.282 44.8034 331.355 43.5866 329.907 42.6885C328.487 41.7614 326.836 41.2979 324.953 41.2979C323.388 41.2979 321.911 41.631 320.52 42.2974C319.564 42.7899 318.42 43.6445 317.087 44.8613C315.754 46.0781 314.827 47.1211 314.306 47.9902C313.958 48.5697 313.784 49.5257 313.784 50.8584L313.828 53.9004L313.741 57.0728C313.741 57.3335 313.784 59.1442 313.871 62.5049L313.828 65.2861L313.915 68.3281C313.944 68.7627 313.987 69.0814 314.045 69.2842L320.172 70.7617C320.491 70.8486 320.969 71.0225 321.606 71.2832L321.737 71.7612C321.737 71.9061 321.664 72.1379 321.52 72.4565C320.679 72.4855 320.042 72.5 319.607 72.5L316.218 72.4565L308.743 72.5435L303.137 72.7173C302.847 72.6883 302.413 72.6593 301.833 72.6304L301.79 72.3262C301.79 72.0944 301.906 71.8047 302.138 71.457Z" />
<path d="M380.36 49.5547L362.934 49.6851H359.631C358.299 49.6851 356.937 49.743 355.546 49.8589C355.286 50.728 355.155 51.3219 355.155 51.6406L355.199 52.0752V52.5098L355.155 54.6392C355.155 56.4064 355.706 58.5793 356.807 61.1577C357.937 63.7072 359.53 65.6628 361.587 67.0244C363.673 68.3571 366.266 69.0669 369.366 69.1538C371.017 69.0669 372.335 68.8641 373.32 68.5454C374.305 68.2267 375.696 67.488 377.492 66.3291L380.621 63.7651L380.882 65.5034C380.882 65.7062 380.867 65.9235 380.838 66.1553C379.535 67.8066 377.883 69.2552 375.884 70.501C373.885 71.7467 371.857 72.6593 369.8 73.2388C368.815 73.4995 367.193 73.6299 364.933 73.6299C362.876 73.6299 360.848 73.2098 358.849 72.3696C355.894 71.0949 353.562 69.0524 351.853 66.2422C350.172 63.403 349.332 59.9699 349.332 55.9429C349.332 54.6681 349.564 53.0312 350.027 51.0322C350.52 49.0332 351.389 46.9038 352.635 44.644C353.475 43.1086 354.503 41.8483 355.72 40.8633C357.458 39.4727 358.979 38.5021 360.283 37.9517C362.166 37.1694 364.354 36.7783 366.845 36.7783C369.54 36.7783 371.741 37.2708 373.451 38.2559C375.768 39.5596 377.492 41.2399 378.622 43.2969C379.781 45.3538 380.36 47.237 380.36 48.9463V49.5547ZM356.111 47.9902H358.154C359.631 47.9902 364.035 47.7585 371.365 47.2949C372.524 47.237 373.233 47.1211 373.494 46.9473C374.016 46.3968 374.276 45.9043 374.276 45.4697C374.276 44.5716 373.987 43.5576 373.407 42.4277C372.828 41.2689 371.93 40.3853 370.713 39.7769C369.525 39.1395 368.134 38.8208 366.541 38.8208C363.18 38.8208 360.486 40.0811 358.458 42.6016C356.894 44.5137 356.111 46.3099 356.111 47.9902Z" />
<path d="M384.836 72.6304L384.663 72.0654C384.663 71.8626 384.793 71.5584 385.054 71.1528L387.618 70.6313L391.225 69.9795C391.514 69.8346 391.717 69.6318 391.833 69.3711C392.007 68.9945 392.094 67.8791 392.094 66.0249C392.094 56.1746 392.036 50.4963 391.92 48.9897C391.804 47.4543 391.543 46.4837 391.138 46.0781C390.732 45.6725 389.689 45.3538 388.009 45.1221C387.024 44.9772 386.242 44.7889 385.662 44.5571L385.836 43.2534C388.878 42.0076 390.92 40.9357 391.963 40.0376C393.412 38.7339 394.643 37.0246 395.657 34.9097L397.135 34.9531C397.309 36.4017 397.396 39.6175 397.396 44.6006L397.352 45.3394C397.352 45.5132 397.381 45.7884 397.439 46.165C398.54 44.166 399.916 42.3263 401.567 40.646L402.567 39.6465C402.972 39.1829 403.364 38.8208 403.74 38.5601C405.768 37.3433 407.275 36.7349 408.26 36.7349C409.535 36.7349 410.577 37.1694 411.389 38.0386C412.2 38.8787 412.605 39.9217 412.605 41.1675C412.605 42.1525 412.316 42.9202 411.736 43.4707C410.954 44.195 410.056 44.5571 409.042 44.5571C408.578 44.5571 407.666 44.3109 406.304 43.8184C404.943 43.3258 404.044 43.0796 403.61 43.0796C402.799 43.0796 402.234 43.21 401.915 43.4707C401.104 44.1081 400.119 45.4118 398.96 47.3818C398.062 48.8594 397.613 50.221 397.613 51.4668L397.83 58.6372L397.917 67.2417C398.004 68.2267 398.12 68.8641 398.265 69.1538C398.381 69.3566 398.67 69.6029 399.134 69.8926C402.263 70.1533 404.117 70.3416 404.696 70.4575C405.102 70.4865 405.406 70.5155 405.609 70.5444C406.855 70.5734 407.724 70.7472 408.216 71.0659C408.477 71.2108 408.607 71.4281 408.607 71.7178C408.607 71.8916 408.492 72.1234 408.26 72.4131L403.436 72.3696L401.611 72.3262L398.96 72.3696H394.527L392.137 72.5L384.836 72.6304Z" />
<path d="M447.197 49.5547L429.771 49.6851H426.468C425.136 49.6851 423.774 49.743 422.383 49.8589C422.123 50.728 421.992 51.3219 421.992 51.6406L422.036 52.0752V52.5098L421.992 54.6392C421.992 56.4064 422.543 58.5793 423.644 61.1577C424.773 63.7072 426.367 65.6628 428.424 67.0244C430.51 68.3571 433.103 69.0669 436.203 69.1538C437.854 69.0669 439.172 68.8641 440.157 68.5454C441.142 68.2267 442.533 67.488 444.329 66.3291L447.458 63.7651L447.719 65.5034C447.719 65.7062 447.704 65.9235 447.675 66.1553C446.372 67.8066 444.72 69.2552 442.721 70.501C440.722 71.7467 438.694 72.6593 436.637 73.2388C435.652 73.4995 434.03 73.6299 431.77 73.6299C429.713 73.6299 427.685 73.2098 425.686 72.3696C422.731 71.0949 420.399 69.0524 418.689 66.2422C417.009 63.403 416.169 59.9699 416.169 55.9429C416.169 54.6681 416.401 53.0312 416.864 51.0322C417.357 49.0332 418.226 46.9038 419.472 44.644C420.312 43.1086 421.34 41.8483 422.557 40.8633C424.295 39.4727 425.816 38.5021 427.12 37.9517C429.003 37.1694 431.191 36.7783 433.682 36.7783C436.376 36.7783 438.578 37.2708 440.288 38.2559C442.605 39.5596 444.329 41.2399 445.459 43.2969C446.618 45.3538 447.197 47.237 447.197 48.9463V49.5547ZM422.948 47.9902H424.991C426.468 47.9902 430.872 47.7585 438.202 47.2949C439.361 47.237 440.07 47.1211 440.331 46.9473C440.853 46.3968 441.113 45.9043 441.113 45.4697C441.113 44.5716 440.824 43.5576 440.244 42.4277C439.665 41.2689 438.767 40.3853 437.55 39.7769C436.362 39.1395 434.971 38.8208 433.378 38.8208C430.017 38.8208 427.323 40.0811 425.295 42.6016C423.73 44.5137 422.948 46.3099 422.948 47.9902Z" />
<path d="M28.3299 0.5L8.68504 43.105C15.4409 39.315 17.9961 40.0556 20.8977 39.4457L33.6567 10.3018L49.637 46.7643H36.878V54.6057L63.4086 55.1285L38.7236 0.5H28.3299Z"/>
<path d="M29.2126 46.7643V54.6057C10.1142 54.6057 11.0236 63.4927 11.0236 66.3678C11.0236 70.1601 16.4803 80.3517 33.6567 80.3517C55.4567 80.3517 57.1456 70.2885 57.1456 61.9244H66.5C66.5 84.9258 49.637 89.5 33.6567 89.5C24.1724 89.5 0.5 85.9714 0.5 66.3678C0.5 46.7643 19.4685 45.6752 29.2126 46.7643Z" />
</svg>
