<svg width="536" height="72" viewBox="0 0 536 72" fill="none" xmlns="http://www.w3.org/2000/svg">
<path d="M141.355 66V55.386H155.797C158.465 55.386 160.553 54.603 162.061 53.037C163.569 51.471 164.323 49.557 164.323 47.295C164.323 45.729 163.975 44.337 163.279 43.119C162.583 41.901 161.597 40.944 160.321 40.248C159.103 39.552 157.595 39.204 155.797 39.204H141.355V28.851H154.666C156.928 28.851 158.755 28.3 160.147 27.198C161.539 26.038 162.235 24.298 162.235 21.978C162.235 19.716 161.539 18.034 160.147 16.932C158.755 15.772 156.928 15.192 154.666 15.192H141.355V4.578H157.276C161.22 4.578 164.555 5.303 167.281 6.753C170.065 8.203 172.182 10.146 173.632 12.582C175.082 15.018 175.807 17.715 175.807 20.673C175.807 24.443 174.589 27.633 172.153 30.243C169.717 32.853 166.121 34.651 161.365 35.637L161.713 31.026C166.875 32.012 170.848 34.013 173.632 37.029C176.474 40.045 177.895 43.757 177.895 48.165C177.895 51.529 177.054 54.574 175.372 57.3C173.748 59.968 171.37 62.085 168.238 63.651C165.164 65.217 161.452 66 157.102 66H141.355ZM130.915 66V4.578H144.4V66H130.915Z" fill="black"/>
<path d="M205.79 66.957C201.44 66.957 197.496 66 193.958 64.086C190.478 62.114 187.723 59.446 185.693 56.082C183.663 52.718 182.648 48.948 182.648 44.772C182.648 40.596 183.663 36.855 185.693 33.549C187.723 30.243 190.478 27.633 193.958 25.719C197.438 23.747 201.382 22.761 205.79 22.761C210.198 22.761 214.142 23.718 217.622 25.632C221.102 27.546 223.857 30.185 225.887 33.549C227.917 36.855 228.932 40.596 228.932 44.772C228.932 48.948 227.917 52.718 225.887 56.082C223.857 59.446 221.102 62.114 217.622 64.086C214.142 66 210.198 66.957 205.79 66.957ZM205.79 54.864C207.704 54.864 209.386 54.458 210.836 53.646C212.286 52.776 213.388 51.587 214.142 50.079C214.954 48.513 215.36 46.744 215.36 44.772C215.36 42.8 214.954 41.089 214.142 39.639C213.33 38.131 212.199 36.971 210.749 36.159C209.357 35.289 207.704 34.854 205.79 34.854C203.934 34.854 202.281 35.289 200.831 36.159C199.381 36.971 198.25 38.131 197.438 39.639C196.626 41.147 196.22 42.887 196.22 44.859C196.22 46.773 196.626 48.513 197.438 50.079C198.25 51.587 199.381 52.776 200.831 53.646C202.281 54.458 203.934 54.864 205.79 54.864Z" fill="black"/>
<path d="M263.486 66V41.901C263.486 39.697 262.79 37.928 261.398 36.594C260.064 35.202 258.353 34.506 256.265 34.506C254.815 34.506 253.539 34.825 252.437 35.463C251.335 36.043 250.465 36.913 249.827 38.073C249.189 39.175 248.87 40.451 248.87 41.901L243.737 39.378C243.737 36.072 244.462 33.172 245.912 30.678C247.362 28.184 249.363 26.27 251.915 24.936C254.525 23.544 257.454 22.848 260.702 22.848C263.834 22.848 266.589 23.602 268.967 25.11C271.403 26.56 273.317 28.503 274.709 30.939C276.101 33.375 276.797 36.043 276.797 38.943V66H263.486ZM235.559 66V23.718H248.87V66H235.559Z" fill="black"/>
<path d="M303.355 66.87C299.353 66.87 295.786 65.913 292.654 63.999C289.58 62.085 287.144 59.475 285.346 56.169C283.606 52.863 282.736 49.093 282.736 44.859C282.736 40.625 283.606 36.855 285.346 33.549C287.144 30.243 289.58 27.633 292.654 25.719C295.786 23.805 299.353 22.848 303.355 22.848C306.255 22.848 308.865 23.399 311.185 24.501C313.563 25.603 315.506 27.14 317.014 29.112C318.58 31.026 319.45 33.23 319.624 35.724V53.559C319.45 56.053 318.609 58.315 317.101 60.345C315.593 62.317 313.65 63.912 311.272 65.13C308.894 66.29 306.255 66.87 303.355 66.87ZM305.704 54.864C307.618 54.864 309.271 54.458 310.663 53.646C312.055 52.776 313.157 51.587 313.969 50.079C314.781 48.571 315.187 46.831 315.187 44.859C315.187 42.887 314.781 41.176 313.969 39.726C313.215 38.218 312.113 37.029 310.663 36.159C309.271 35.289 307.647 34.854 305.791 34.854C303.935 34.854 302.282 35.289 300.832 36.159C299.44 37.029 298.309 38.218 297.439 39.726C296.627 41.234 296.221 42.945 296.221 44.859C296.221 46.773 296.627 48.484 297.439 49.992C298.251 51.5 299.382 52.689 300.832 53.559C302.282 54.429 303.906 54.864 305.704 54.864ZM327.715 66H314.665V54.603L316.666 44.337L314.404 34.071V2.838H327.715V66Z" fill="black"/>
<path d="M348.745 66V55.386H363.187C365.855 55.386 367.943 54.603 369.451 53.037C370.959 51.471 371.713 49.557 371.713 47.295C371.713 45.729 371.365 44.337 370.669 43.119C369.973 41.901 368.987 40.944 367.711 40.248C366.493 39.552 364.985 39.204 363.187 39.204H348.745V28.851H362.056C364.318 28.851 366.145 28.3 367.537 27.198C368.929 26.038 369.625 24.298 369.625 21.978C369.625 19.716 368.929 18.034 367.537 16.932C366.145 15.772 364.318 15.192 362.056 15.192H348.745V4.578H364.666C368.61 4.578 371.945 5.303 374.671 6.753C377.455 8.203 379.572 10.146 381.022 12.582C382.472 15.018 383.197 17.715 383.197 20.673C383.197 24.443 381.979 27.633 379.543 30.243C377.107 32.853 373.511 34.651 368.755 35.637L369.103 31.026C374.265 32.012 378.238 34.013 381.022 37.029C383.864 40.045 385.285 43.757 385.285 48.165C385.285 51.529 384.444 54.574 382.762 57.3C381.138 59.968 378.76 62.085 375.628 63.651C372.554 65.217 368.842 66 364.492 66H348.745ZM338.305 66V4.578H351.79V66H338.305Z" fill="black"/>
<path d="M413.179 66.957C408.829 66.957 404.885 66 401.347 64.086C397.867 62.114 395.112 59.446 393.082 56.082C391.052 52.718 390.037 48.948 390.037 44.772C390.037 40.596 391.052 36.855 393.082 33.549C395.112 30.243 397.867 27.633 401.347 25.719C404.827 23.747 408.771 22.761 413.179 22.761C417.587 22.761 421.531 23.718 425.011 25.632C428.491 27.546 431.246 30.185 433.276 33.549C435.306 36.855 436.321 40.596 436.321 44.772C436.321 48.948 435.306 52.718 433.276 56.082C431.246 59.446 428.491 62.114 425.011 64.086C421.531 66 417.587 66.957 413.179 66.957ZM413.179 54.864C415.093 54.864 416.775 54.458 418.225 53.646C419.675 52.776 420.777 51.587 421.531 50.079C422.343 48.513 422.749 46.744 422.749 44.772C422.749 42.8 422.343 41.089 421.531 39.639C420.719 38.131 419.588 36.971 418.138 36.159C416.746 35.289 415.093 34.854 413.179 34.854C411.323 34.854 409.67 35.289 408.22 36.159C406.77 36.971 405.639 38.131 404.827 39.639C404.015 41.147 403.609 42.887 403.609 44.859C403.609 46.773 404.015 48.513 404.827 50.079C405.639 51.587 406.77 52.776 408.22 53.646C409.67 54.458 411.323 54.864 413.179 54.864Z" fill="black"/>
<path d="M463.306 66.957C458.956 66.957 455.012 66 451.474 64.086C447.994 62.114 445.239 59.446 443.209 56.082C441.179 52.718 440.164 48.948 440.164 44.772C440.164 40.596 441.179 36.855 443.209 33.549C445.239 30.243 447.994 27.633 451.474 25.719C454.954 23.747 458.898 22.761 463.306 22.761C467.714 22.761 471.658 23.718 475.138 25.632C478.618 27.546 481.373 30.185 483.403 33.549C485.433 36.855 486.448 40.596 486.448 44.772C486.448 48.948 485.433 52.718 483.403 56.082C481.373 59.446 478.618 62.114 475.138 64.086C471.658 66 467.714 66.957 463.306 66.957ZM463.306 54.864C465.22 54.864 466.902 54.458 468.352 53.646C469.802 52.776 470.904 51.587 471.658 50.079C472.47 48.513 472.876 46.744 472.876 44.772C472.876 42.8 472.47 41.089 471.658 39.639C470.846 38.131 469.715 36.971 468.265 36.159C466.873 35.289 465.22 34.854 463.306 34.854C461.45 34.854 459.797 35.289 458.347 36.159C456.897 36.971 455.766 38.131 454.954 39.639C454.142 41.147 453.736 42.887 453.736 44.859C453.736 46.773 454.142 48.513 454.954 50.079C455.766 51.587 456.897 52.776 458.347 53.646C459.797 54.458 461.45 54.864 463.306 54.864Z" fill="black"/>
<path d="M520.132 66L505.342 44.076L520.045 23.718H534.922L517.174 46.599L517.609 41.118L535.792 66H520.132ZM493.075 66V2.838H506.386V66H493.075Z" fill="black"/>
<path fill-rule="evenodd" clip-rule="evenodd" d="M0 19.6505C5.66504 13.1003 18.4518 0 24.2787 0C31.5624 0 43.7017 9.82526 43.7017 17.1942C43.7017 21.7447 43.2195 23.6608 42.8135 24.2981C45.8874 21.9457 53.4855 20.0047 61.9108 29.4758C72.8362 41.7574 71.6223 46.67 67.9805 52.8108C65.0671 57.7234 55.4365 67.1393 50.9854 71.2331L0 19.6505ZM36.4181 39.301C38.4414 37.2541 42.9734 33.1603 44.9157 33.1603C47.3436 33.1603 49.7714 34.3884 53.4133 38.0729L57.0551 41.7574C58.269 42.9855 60.6969 46.67 57.0551 50.3545L52.1993 55.2671L36.4181 39.301ZM23.0648 12.2816C21.1225 12.2816 17.3998 16.3754 15.7812 18.4224L29.1345 31.9321L32.7763 28.2476C37.6321 23.335 32.7763 18.4224 31.5624 17.1942C30.3484 15.9661 25.4927 12.2816 23.0648 12.2816Z" fill="black"/>
<path d="M64.1227 7.36895C58.2958 12.2816 56.0298 16.7848 55.6251 18.4224C57.5674 18.4224 62.9088 22.5162 65.3366 24.5632C66.5506 19.6505 76.2621 11.0534 78.6899 11.0534C80.6322 11.0534 85.1643 15.9661 87.1875 18.4224L72.6203 33.1603C76.5049 37.0904 77.476 42.9855 77.476 45.4418L102.969 19.6505C87.1875 0 79.9039 0 76.2621 0C72.6203 0 70.1924 1.22816 64.1227 7.36895Z" fill="black"/>
</svg>
