<svg width="485" height="95" viewBox="0 0 485 95" fill="none" xmlns="http://www.w3.org/2000/svg">
<path d="M149.283 78.252C146.147 78.252 142.983 77.944 139.791 77.328C136.655 76.656 133.743 75.704 131.055 74.472C128.423 73.184 126.295 71.644 124.671 69.852C123.047 68.004 122.235 65.876 122.235 63.468C122.235 60.388 123.215 57.924 125.175 56.076C127.135 54.228 129.431 53.36 132.063 53.472C134.135 53.528 136.207 53.976 138.279 54.816C140.351 55.6 142.451 56.384 144.579 57.168C146.763 57.952 148.947 58.344 151.131 58.344C153.315 58.344 154.827 58.064 155.667 57.504C156.507 56.944 156.927 56.188 156.927 55.236C156.927 54.116 156.339 53.192 155.163 52.464C153.987 51.736 152.503 51.176 150.711 50.784L146.595 49.776C142.339 48.768 138.531 47.648 135.171 46.416C131.811 45.128 129.151 43.448 127.191 41.376C125.287 39.248 124.335 36.42 124.335 32.892C124.335 29.028 125.399 25.892 127.527 23.484C129.655 21.02 132.539 19.228 136.179 18.108C139.819 16.988 143.879 16.428 148.359 16.428C152.951 16.428 156.983 16.904 160.455 17.856C163.927 18.808 166.615 20.18 168.519 21.972C170.479 23.764 171.459 25.948 171.459 28.524C171.459 31.268 170.703 33.424 169.191 34.992C167.735 36.504 165.775 37.26 163.311 37.26C161.687 37.26 159.979 36.98 158.187 36.42C156.451 35.86 154.603 35.328 152.643 34.824C150.739 34.264 148.695 33.984 146.511 33.984C144.551 33.984 143.067 34.292 142.059 34.908C141.051 35.468 140.547 36.224 140.547 37.176C140.547 38.352 141.219 39.22 142.563 39.78C143.907 40.34 146.119 41.012 149.199 41.796L153.903 42.888C157.767 43.84 161.155 44.988 164.067 46.332C166.979 47.676 169.247 49.44 170.871 51.624C172.495 53.808 173.307 56.664 173.307 60.192C173.307 64.448 172.299 67.92 170.283 70.608C168.267 73.24 165.467 75.172 161.883 76.404C158.299 77.636 154.099 78.252 149.283 78.252Z" fill="black"/>
<path d="M184.945 78C182.201 78 180.129 77.272 178.729 75.816C177.385 74.36 176.713 72.54 176.713 70.356V21.636C176.713 19.228 177.385 17.24 178.729 15.672C180.129 14.048 182.201 13.236 184.945 13.236C187.409 13.236 189.313 14.048 190.657 15.672C192.001 17.24 192.673 19.172 192.673 21.468V70.356C192.673 72.54 192.001 74.36 190.657 75.816C189.313 77.272 187.409 78 184.945 78Z" fill="black"/>
<path d="M197.631 24.324C197.631 21.916 198.359 19.984 199.815 18.528C201.327 17.016 203.399 16.26 206.031 16.26C208.831 16.26 210.903 16.988 212.247 18.444C213.647 19.9 214.347 21.832 214.347 24.24C214.347 26.592 213.647 28.496 212.247 29.952C210.903 31.352 208.831 32.052 206.031 32.052C203.287 32.052 201.187 31.352 199.731 29.952C198.331 28.496 197.631 26.62 197.631 24.324ZM206.031 78C203.399 78 201.439 77.272 200.151 75.816C198.863 74.36 198.219 72.54 198.219 70.356V41.628C198.219 39.22 198.863 37.316 200.151 35.916C201.439 34.516 203.399 33.816 206.031 33.816C208.663 33.816 210.623 34.516 211.911 35.916C213.255 37.316 213.927 39.164 213.927 41.46V70.356C213.927 72.54 213.227 74.36 211.827 75.816C210.483 77.272 208.551 78 206.031 78Z" fill="black"/>
<path d="M239.325 78.252C234.957 78.252 231.093 77.356 227.733 75.564C224.373 73.716 221.741 71.112 219.837 67.752C217.933 64.392 216.981 60.444 216.981 55.908C216.981 51.372 217.933 47.424 219.837 44.064C221.741 40.704 224.373 38.1 227.733 36.252C231.149 34.404 235.069 33.48 239.493 33.48C242.965 33.48 246.017 33.844 248.649 34.572C251.337 35.3 253.437 36.392 254.949 37.848C256.517 39.304 257.301 41.124 257.301 43.308C257.301 45.94 256.629 48.012 255.285 49.524C253.941 50.98 252.009 51.708 249.489 51.708C247.809 51.708 246.129 51.456 244.449 50.952C242.825 50.448 240.725 50.196 238.149 50.196C236.021 50.196 234.229 50.532 232.773 51.204C231.317 51.876 230.589 53.108 230.589 54.9C230.589 56.748 231.317 58.092 232.773 58.932C234.229 59.716 236.021 60.108 238.149 60.108C239.885 60.108 241.341 59.94 242.517 59.604C243.693 59.268 244.813 58.932 245.877 58.596C246.941 58.26 248.145 58.092 249.489 58.092C252.345 58.092 254.445 58.932 255.789 60.612C257.189 62.236 257.889 64.336 257.889 66.912C257.889 69.096 257.077 71.056 255.453 72.792C253.829 74.472 251.617 75.816 248.817 76.824C246.017 77.776 242.853 78.252 239.325 78.252Z" fill="black"/>
<path d="M260.057 56.16C260.057 51.736 260.925 47.844 262.661 44.484C264.453 41.124 266.973 38.492 270.221 36.588C273.525 34.684 277.445 33.732 281.981 33.732C285.509 33.732 288.673 34.376 291.473 35.664C294.329 36.952 296.569 38.688 298.193 40.872C299.817 43 300.629 45.352 300.629 47.928C300.629 50.616 299.845 52.52 298.277 53.64C296.709 54.76 294.385 55.32 291.305 55.32H273.665C273.665 56.776 274.225 57.98 275.345 58.932C276.521 59.884 278.481 60.36 281.225 60.36C282.625 60.36 283.913 60.22 285.089 59.94C286.321 59.66 287.553 59.408 288.785 59.184C290.073 58.904 291.501 58.764 293.069 58.764C295.309 58.764 297.157 59.576 298.613 61.2C300.069 62.768 300.797 64.952 300.797 67.752C300.797 71.056 299.089 73.632 295.673 75.48C292.313 77.328 287.889 78.252 282.401 78.252C278.537 78.252 274.897 77.496 271.481 75.984C268.121 74.472 265.377 72.092 263.249 68.844C261.121 65.54 260.057 61.312 260.057 56.16ZM287.273 52.548C288.113 52.548 288.393 52.156 288.113 51.372C287.889 50.588 287.217 49.776 286.097 48.936C284.977 48.096 283.353 47.676 281.225 47.676C278.761 47.676 276.913 48.208 275.681 49.272C274.505 50.336 273.917 51.428 273.917 52.548H287.273Z" fill="black"/>
<path d="M312.588 78C310.124 78 308.164 77.272 306.708 75.816C305.308 74.304 304.608 72.456 304.608 70.272V21.636C304.608 19.284 305.308 17.296 306.708 15.672C308.164 14.048 310.208 13.236 312.84 13.236C315.416 13.236 317.348 14.048 318.636 15.672C319.98 17.296 320.652 19.312 320.652 21.72V46.836H322.164C322.164 43.644 322.724 41.124 323.844 39.276C325.02 37.428 326.504 36.112 328.296 35.328C330.144 34.488 332.02 34.068 333.924 34.068C337.284 34.068 339.832 34.908 341.568 36.588C343.36 38.212 344.564 40.396 345.18 43.14C345.852 45.884 346.188 48.88 346.188 52.128V70.272C346.188 72.568 345.432 74.444 343.92 75.9C342.464 77.3 340.504 78 338.04 78C335.52 78 333.532 77.3 332.076 75.9C330.62 74.444 329.892 72.568 329.892 70.272V55.404C329.892 53.388 329.5 51.82 328.716 50.7C327.932 49.58 326.784 49.02 325.272 49.02C323.76 49.02 322.612 49.636 321.828 50.868C321.044 52.1 320.652 53.668 320.652 55.572V70.272C320.652 72.456 319.924 74.304 318.468 75.816C317.068 77.272 315.108 78 312.588 78Z" fill="black"/>
<path d="M362.977 78C358.833 78 355.585 76.88 353.233 74.64C350.937 72.4 349.789 69.264 349.789 65.232C349.789 61.2 351.133 58.288 353.821 56.496C356.509 54.648 359.953 53.724 364.153 53.724C366.617 53.724 368.857 53.892 370.873 54.228C372.889 54.564 374.709 55.04 376.333 55.656H376.585V54.396C376.585 53.108 376.109 52.1 375.157 51.372C374.205 50.588 373.001 50.224 371.545 50.28C370.145 50.28 368.941 50.364 367.933 50.532C366.981 50.7 365.777 50.98 364.321 51.372C361.633 52.044 359.309 51.988 357.349 51.204C355.389 50.42 354.045 48.88 353.317 46.584C352.645 44.176 352.785 42.16 353.737 40.536C354.745 38.912 356.257 37.652 358.273 36.756C360.009 35.916 361.941 35.216 364.069 34.656C366.253 34.096 368.605 33.816 371.125 33.816C378.461 33.816 383.837 35.608 387.253 39.192C390.725 42.72 392.461 48.656 392.461 57V70.02C392.461 72.316 391.761 74.22 390.361 75.732C388.961 77.244 387.029 78 384.565 78C381.877 78 379.861 77.244 378.517 75.732C377.229 74.22 376.585 72.372 376.585 70.188V68.256H374.905C374.905 69.712 374.625 71.196 374.065 72.708C373.561 74.22 372.469 75.48 370.789 76.488C369.165 77.496 366.561 78 362.977 78ZM363.817 59.604C363.817 60.556 364.153 61.228 364.825 61.62C365.553 62.012 367.093 62.208 369.445 62.208C371.573 62.208 373.057 62.012 373.897 61.62C374.737 61.228 375.157 60.556 375.157 59.604C375.157 58.708 374.737 58.092 373.897 57.756C373.057 57.364 371.573 57.168 369.445 57.168C367.093 57.168 365.553 57.364 364.825 57.756C364.153 58.092 363.817 58.708 363.817 59.604Z" fill="black"/>
<path d="M410.251 78C406.331 78 403.139 76.516 400.675 73.548C398.211 70.58 396.951 66.408 396.895 61.032L396.811 41.628C396.811 39.22 397.539 37.344 398.995 36C400.507 34.6 402.551 33.9 405.127 33.9C407.591 33.9 409.579 34.6 411.091 36C412.603 37.344 413.359 39.22 413.359 41.628V59.184C413.359 63.384 415.011 65.484 418.315 65.484C419.939 65.484 421.031 64.896 421.591 63.72C422.151 62.488 422.431 60.92 422.431 59.016V41.628C422.431 39.444 423.187 37.624 424.699 36.168C426.211 34.656 428.171 33.9 430.579 33.9C433.099 33.9 435.031 34.656 436.375 36.168C437.775 37.624 438.475 39.444 438.475 41.628V69.18C438.475 71.868 437.859 74.024 436.627 75.648C435.451 77.216 433.519 78 430.831 78C428.199 78 426.127 77.216 424.615 75.648C423.159 74.024 422.431 71.868 422.431 69.18V67.752H420.919C420.919 71 419.939 73.52 417.979 75.312C416.075 77.104 413.499 78 410.251 78Z" fill="black"/>
<path d="M463.999 79.092C460.135 79.092 456.55 78.728 453.246 78C449.998 77.216 447.395 76.012 445.435 74.388C443.475 72.708 442.495 70.496 442.495 67.752C442.495 65.344 443.222 63.356 444.678 61.788C446.134 60.22 448.066 59.436 450.474 59.436C451.986 59.436 453.498 59.688 455.01 60.192C456.578 60.64 458.23 61.088 459.966 61.536C461.702 61.984 463.579 62.208 465.595 62.208C467.387 62.208 468.591 62.124 469.207 61.956C469.823 61.732 470.13 61.34 470.13 60.78C470.13 60.108 469.738 59.66 468.954 59.436C468.226 59.212 466.966 58.932 465.174 58.596L459.126 57.42C456.606 56.916 454.142 56.272 451.734 55.488C449.382 54.648 447.422 53.416 445.854 51.792C444.342 50.168 443.586 47.956 443.586 45.156C443.586 41.348 445.266 38.38 448.626 36.252C452.042 34.124 456.97 33.06 463.41 33.06C467.106 33.06 470.411 33.424 473.323 34.152C476.291 34.88 478.643 35.972 480.379 37.428C482.115 38.828 482.983 40.592 482.983 42.72C483.039 45.016 482.422 46.864 481.134 48.264C479.846 49.664 478.223 50.364 476.263 50.364C474.863 50.364 473.435 50.196 471.979 49.86C470.579 49.468 469.038 49.076 467.358 48.684C465.734 48.236 463.859 47.984 461.73 47.928C460.218 47.816 458.987 47.9 458.035 48.18C457.083 48.46 456.607 48.908 456.607 49.524C456.607 50.196 457.166 50.672 458.286 50.952C459.406 51.176 461.087 51.484 463.327 51.876L469.29 52.968C472.93 53.584 475.815 54.368 477.943 55.32C480.127 56.216 481.695 57.476 482.647 59.1C483.599 60.724 484.074 62.964 484.074 65.82C484.074 68.788 483.206 71.28 481.47 73.296C479.79 75.256 477.438 76.712 474.414 77.664C471.39 78.616 467.919 79.092 463.999 79.092Z" fill="black"/>
<path d="M93.827 83.4178C63.7515 98.5572 29.3672 97.5191 1.96324 82.6392C-0.123519 81.3469 -0.550923 79.318 0.708498 77.2056L1.25138 76.3291C2.72406 73.8589 5.52089 72.9928 8.00746 74.4254C15.5343 78.7622 29.3744 84.1418 47.3404 84.1418C65.6193 84.1418 79.6907 78.5732 87.1741 74.1999C89.3663 72.9187 92.2448 73.3112 93.8926 75.1837C94.1248 75.4476 94.2917 75.7604 94.4343 76.0817C94.577 76.403 94.7581 76.7054 94.9318 77.011C96.1566 79.166 95.9585 82.1742 93.827 83.4178Z" fill="black"/>
<path d="M52.0733 2.36485L62.3499 20.2416C63.9587 23.0403 62.3578 26.5767 59.1773 27.066C55.6521 27.6084 51.336 28.1418 47.9949 28.1418C45.8811 28.1418 43.8377 28.0282 42.3198 27.908C41.0753 27.8095 39.8657 28.4149 39.2415 29.5007C38.1281 31.4376 39.3424 33.8797 41.5585 34.099C43.7872 34.3196 46.3262 34.5269 47.9949 34.5269C55.1256 34.5269 60.9992 33.5327 64.8269 32.5621C67.1176 31.9812 69.6449 32.8606 70.8262 34.9155L86.1348 61.5459C87.1871 63.3765 86.9059 65.701 85.22 66.9664C79.1453 71.5261 66.3928 77.725 47.9949 77.725C29.5976 77.725 16.8202 71.5264 10.727 66.9668C9.03633 65.7016 8.75205 63.373 9.80622 61.5392L14.7933 52.8638C15.9161 50.9106 18.2493 50.0428 20.3342 50.8806L20.446 50.9255C26.041 53.174 33.1903 56.0471 47.9949 56.0471C54.7969 56.0471 60.8973 55.0325 64.9195 54.078C66.9377 53.5991 67.8012 51.3236 66.7643 49.5199C66.0772 48.3245 64.73 47.6798 63.3709 47.8851C59.6204 48.4518 52.1014 49.5043 47.9949 49.5043C37.9067 49.5043 29.6598 47.6755 24.5051 45.9804C21.9418 45.1374 21.0316 42.1748 22.3802 39.8288L43.9166 2.36486C45.7292 -0.788283 50.2607 -0.788286 52.0733 2.36485Z" fill="black"/>
</svg>
