<svg width="512" height="512" viewBox="0 0 512 512" fill="none" xmlns="http://www.w3.org/2000/svg">
<path d="M113.911 299.166C113.911 330.622 88.4112 356.122 56.9555 356.122C25.4999 356.122 -2.74993e-06 330.622 0 299.166L6.81365e-06 221.227C9.56359e-06 189.772 25.4999 164.272 56.9555 164.272C88.4112 164.272 113.911 189.772 113.911 221.227L113.911 299.166Z" fill="white"/>
<path d="M218.829 512C187.373 512 161.874 486.5 161.874 455.044C161.874 423.589 187.373 398.089 218.829 398.089C250.285 398.089 275.785 423.589 275.785 455.044C275.785 486.5 250.285 512 218.829 512Z" fill="white"/>
<path d="M338.735 6.79189e-07C370.191 3.04084e-07 395.691 25.4998 395.691 56.9555C395.691 88.4111 370.191 113.911 338.735 113.911H56.9555C25.4999 113.911 1.43713e-05 88.4112 1.39962e-05 56.9555C1.36211e-05 25.4999 25.4999 4.41449e-06 56.9555 4.03938e-06L338.735 6.79189e-07Z" fill="white"/>
<path d="M338.735 233.817C370.191 233.817 395.691 259.317 395.691 290.773C395.691 322.228 370.191 347.728 338.735 347.728H221.227C189.772 347.728 164.272 322.228 164.272 290.773C164.272 259.317 189.772 233.817 221.227 233.817H338.735Z" fill="white"/>
<path d="M512 455.044C512 486.5 486.5 512 455.044 512C423.589 512 398.089 486.5 398.089 455.044C398.089 423.589 423.589 398.089 455.044 398.089C486.5 398.089 512 423.589 512 455.044Z" fill="#735D93"/>
<path d="M338.136 347.728C384.247 347.728 428.47 329.411 461.076 296.805C493.682 264.199 512 219.976 512 173.864C512 127.753 493.682 83.5295 461.076 50.9236C428.47 18.3178 384.247 -5.49876e-07 338.136 0V113.921C354.034 113.921 369.28 120.237 380.522 131.478C391.763 142.72 398.079 157.966 398.079 173.864C398.079 189.762 391.763 205.009 380.522 216.25C369.28 227.492 354.034 233.807 338.136 233.807L338.136 347.728Z" fill="white"/>
<path d="M5.15783e-05 293.171C4.65046e-05 351.208 23.0552 406.868 64.0936 447.906C105.132 488.945 160.792 512 218.829 512L218.829 398.107C190.998 398.107 164.307 387.051 144.628 367.372C124.949 347.693 113.893 321.002 113.893 293.171L5.15783e-05 293.171Z" fill="white"/>
</svg>
