<svg width="801" height="801" viewBox="0 0 801 801" fill="none" xmlns="http://www.w3.org/2000/svg">
<path d="M0.00856119 90.5C0.808561 21.3 55.3419 1.33333 82.5086 0H528.5C619.167 1.66667 800.5 57.9 800.5 269.5C800.5 481.1 619.167 540 528.5 543H341C312.667 541.167 256 520.9 256 454.5C256 388.1 312.667 367.833 341 366H528.5C559.667 363.167 622 339.9 622 269.5C622 199.1 559.667 178.833 528.5 177.5H82.5086C54.6752 177.333 -0.791439 159.7 0.00856119 90.5Z" fill="white"/>
<path d="M0.00856119 334C0.00856119 280 55.0086 259.833 82.5086 256.5C148.509 256.5 173.003 308.167 177 334V459C177 560 263.5 622.5 341 622.5C418.5 622.5 431.5 691.5 431.5 710.5C431.5 729.5 419.5 801 341 801C262.5 801 165.5 763.991 82.5086 681C16.1154 614.607 -0.155252 505.336 0.00856119 459V334Z" fill="white"/>
<path d="M622 711.5C622 643.9 681.333 624 711 622.5C740.833 625 800.5 646.3 800.5 711.5C800.5 776.7 740.833 798.333 711 801C681.333 799.333 622 779.1 622 711.5Z" fill="white"/>
</svg>
